<svg width="100" height="100" xmlns="http://www.w3.org/2000/svg" xmlns:xlink="http://www.w3.org/1999/xlink"><defs><circle id="a" cx="50" cy="50" r="50"/></defs><g fill="none" fill-rule="evenodd"><mask id="b" fill="#fff"><use xlink:href="#a"/></mask><use fill="#13235F" xlink:href="#a"/><g mask="url(#b)" fill="#FFF" fill-rule="nonzero"><path d="M59.698 37.015c2.784.071 5.545-.045 8.261.254 4.6.506 7.85 4.174 8.095 8.8.137 2.56-.35 4.96-1.95 7.045-1.651 2.155-3.868 3.35-6.545 3.536-2.16.15-4.34.08-6.512.104-.438.005-.88 0-1.349 0V37.015Zm3.732 16.689c1.05 0 2.08.043 3.096-.008 2.77-.14 4.656-1.607 5.44-4.22a8.762 8.762 0 0 0 .097-4.818c-.505-1.92-1.65-3.322-3.526-4.063-1.655-.653-3.386-.371-5.109-.434l.002 13.543ZM56.18 41.351c-.851-.304-1.646-.651-2.48-.868-1.435-.375-2.898-.452-4.345-.027-2.41.708-4.108 2.889-4.32 5.542-.101 1.26-.032 2.505.416 3.704.983 2.634 3.596 4.16 6.618 3.91 1.477-.123 2.852-.513 4.117-1.411.012.16.028.27.028.38 0 .96-.01 1.92.008 2.88.007.281-.09.434-.33.56-1.12.592-2.326.83-3.571.923-2.039.151-4.035-.032-5.887-.96-3.248-1.628-4.996-4.298-5.31-7.904-.151-1.745-.027-3.475.631-5.114 1.418-3.526 4.055-5.526 7.805-6.036 1.77-.24 3.54-.148 5.265.378 1.36.415 1.36.425 1.36 1.813l-.004 2.23ZM18.565 50.285c-1.704-.809-3.25-.138-4.9.628 1.227-1.458 2.501-2.699 4.05-3.715l3.747 5.12c-1.924 1.027-3.017 2.724-3.92 4.616l.27-.16c.808-.465 1.606-.948 2.427-1.385.3-.144.621-.238.951-.278.39-.06.604.144.635.539.043.546-.219.981-.547 1.375-.328.393-.674.745-1.002 1.103 1.153.56 4.382-1.243 5.48-3.131l2.457 1.153c-.615.762-1.149 1.512-1.773 2.17-1.871 1.98-4.16 3.372-6.65 4.4-1.473.61-3.012 1.056-4.523 1.574-.109.026-.22.045-.331.058 1.628-1.126 2.86-2.42 3.212-4.38-2.588 2.575-5.582 3.366-9.148 2.17 2.416-.923 3.325-2.862 3.808-5.09.654-3.013 2.576-4.974 5.2-6.369.186-.099.38-.187.57-.28l-.013-.118Z"/><path d="m29.765 43.735-7.425 9.018c-.685-.934-1.354-1.84-2.02-2.755-1.08-1.473-2.148-2.952-3.24-4.415-.2-.268-.178-.42.029-.669 2.304-2.779 4.6-5.564 6.89-8.354.075-.091.16-.178.28-.32l5.486 7.495ZM22.68 53.05l7.407-8.998L38.491 48c-.094.123-.169.228-.25.327a9187.77 9187.77 0 0 0-6.905 8.393c-.153.186-.265.312-.55.177-2.61-1.239-5.227-2.46-7.84-3.687-.082-.04-.156-.09-.266-.16ZM79.4 56.72V37.106h3.615v16.382h7.68v3.232zM38.458 47.35c-2.8-1.314-5.501-2.578-8.196-3.85a.909.909 0 0 1-.32-.282 2625.876 2625.876 0 0 1-5.167-7.063c-.023-.031-.04-.066-.093-.155.128.046.207.068.28.102 2.664 1.248 5.327 2.499 7.988 3.75.18.084.335.21.454.366 1.643 2.296 3.28 4.597 4.91 6.902.03.042.055.088.144.23ZM54.935 58.663c.75-.114.75-.115.991.53l.768 2.073c.049-.077.093-.157.132-.24.23-.61.455-1.222.685-1.832.24-.635.24-.634.994-.534.119 1.2.24 2.418.362 3.664H58.2c-.08-.869-.151-1.725-.235-2.683-.08.16-.127.225-.155.301-.24.65-.476 1.3-.72 1.947-.07.184-.09.484-.39.391-.148-.046-.3-.228-.36-.382-.268-.692-.506-1.396-.837-2.096l-.193 2.522h-.663c.094-1.224.193-2.448.288-3.66ZM67.5 61.605c.351.073.668.16.992.2.27.033.506-.071.58-.37.07-.277-.118-.416-.326-.526-.258-.137-.528-.254-.78-.4-.4-.229-.584-.58-.51-1.04.07-.444.36-.715.78-.807a2.72 2.72 0 0 1 .83-.043c.56.053.61.143.51.71-.272-.054-.549-.165-.813-.142-.2.019-.385.209-.577.32.11.176.184.4.336.517.216.17.497.251.736.394.437.264.606.621.53 1.068-.074.446-.385.775-.88.853-.287.043-.58.045-.868.007-.589-.072-.625-.142-.54-.741ZM70.41 60.99c-.006-.864.536-1.463 1.34-1.482.804-.02 1.36.56 1.36 1.44 0 .88-.537 1.458-1.352 1.455-.814-.002-1.341-.559-1.348-1.413Zm2.052.008a3.733 3.733 0 0 0-.068-.43c-.087-.303-.25-.53-.604-.54-.352-.008-.585.187-.627.498-.051.335-.027.677.07 1.002.054.16.361.34.55.335.189-.005.408-.199.543-.367.104-.131.1-.35.136-.498ZM85.126 60.977c-.008.88-.548 1.445-1.37 1.426-.81-.017-1.33-.587-1.32-1.44.009-.853.564-1.456 1.364-1.455.822 0 1.334.572 1.326 1.469Zm-.627.04c-.037-.195-.053-.34-.092-.48-.08-.294-.254-.497-.585-.508-.346-.012-.596.18-.63.491-.036.352-.034.752.1 1.069.186.443.794.417 1.026-.011.098-.18.13-.397.181-.561ZM65.128 61.207h-1.654c.064.614.535.771 1.524.545.068.5.032.548-.46.605-1.168.134-1.868-.504-1.76-1.607.08-.856.701-1.334 1.545-1.192.689.116 1.035.8.805 1.65Zm-.528-.487c-.04-.504-.196-.694-.534-.696-.356 0-.58.24-.616.696h1.15ZM46.71 62.227c-.15.032-.4.125-.652.131-.45.01-.744-.268-.788-.684-.048-.45.168-.768.622-.886.156-.033.315-.052.474-.058.144-.012.287-.014.424-.02.084-.696-.206-.804-1.28-.516-.106-.508-.076-.568.39-.64.21-.038.423-.051.635-.038.655.058.951.382.96 1.04.009.546 0 1.093 0 1.64-.01.062-.027.123-.048.183l-.737-.152Zm.096-1.05c-.572-.08-.886.051-.88.362 0 .269.178.366.424.365.361 0 .5-.212.456-.727ZM75.48 59.58h.582v1.566c0 .488.152.702.498.72.36.018.625-.261.64-.714.014-.516 0-1.032 0-1.57h.61v2.738h-.573l-.069-.286c-.168.105-.31.24-.48.292-.72.24-1.251-.142-1.26-.902-.007-.572 0-1.145.005-1.717a.513.513 0 0 1 .047-.128ZM85.926 59.573h.57l.063.316c.041-.016.08-.02.103-.042.333-.365.748-.4 1.17-.232.4.16.48.531.48.929-.004.584 0 1.168 0 1.78h-.631v-1.538c0-.515-.173-.744-.524-.742-.351.002-.607.303-.619.748-.012.503 0 1.006 0 1.534h-.608l-.004-2.753ZM42.605 58.63h.635v3.12h1.44v.57H42.6zM89.155 61.738c.294.048.566.12.839.124.11 0 .268-.123.314-.23.029-.065-.089-.24-.182-.303-.173-.12-.384-.185-.568-.291-.32-.184-.486-.458-.423-.832.063-.373.329-.57.681-.64.183-.032.37-.04.556-.022.48.034.497.064.445.575-.232-.027-.466-.085-.695-.07a.448.448 0 0 0-.315.24c-.029.067.087.24.181.305.197.134.429.215.632.34.286.176.427.432.365.777a.732.732 0 0 1-.606.616 2.571 2.571 0 0 1-.714.032c-.526-.039-.547-.08-.51-.621ZM49.984 60.118c-.24-.03-.451-.088-.658-.072-.122.01-.3.115-.332.215-.028.085.09.263.19.335.182.13.4.204.597.32.296.15.452.483.379.806-.062.37-.314.55-.646.614-.223.038-.45.045-.674.022-.511-.042-.537-.08-.498-.624.265.048.53.128.796.132.124 0 .25-.143.374-.221-.076-.113-.129-.257-.233-.331-.16-.114-.359-.17-.531-.27-.332-.19-.498-.48-.42-.866.074-.375.347-.554.7-.615.184-.02.37-.026.554-.018.399-.01.517.187.402.573ZM78.886 60.06l-.4-.06c-.008-.134-.013-.25-.02-.388l.394-.098.04-.617h.586l.05.635.666.046V60l-.683.05c0 .498-.02.987.007 1.472.018.304.218.375.683.303.121.468.072.539-.389.548-.64.013-.925-.264-.937-.915-.004-.45.003-.898.003-1.399ZM51.018 59.513l.044-.618h.584l.047.632.653.052v.425l-.668.047c0 .504-.02.993.007 1.48.016.29.197.355.686.307.087.48.038.539-.434.537-.595 0-.88-.274-.895-.875-.01-.465 0-.93 0-1.415l-.4-.103-.017-.37.393-.1ZM74.5 62.334h-.574v-3.87h.574zM61.353 62.32v-3.534c0-.103.013-.207.022-.328h.585v3.862h-.607ZM60.36 62.329h-.585v-2.747h.585zM81.065 59.574h.575v2.746h-.572zM81.32 58.135c.193.249.39.392.384.527-.006.134-.184.348-.327.39-.235.069-.425-.11-.4-.353.017-.157.173-.299.343-.564ZM60.082 59.24c-.184-.253-.35-.384-.376-.538a.315.315 0 0 1 .38-.379c.144.031.332.234.347.375.015.142-.175.286-.351.541Z"/></g></g></svg>