<svg width="100" height="100" xmlns="http://www.w3.org/2000/svg"><g fill="none" fill-rule="evenodd"><circle fill="#29007C" cx="50" cy="50" r="50"/><g fill-rule="nonzero"><path d="M89.32 58.622c0-1.233-.861-2.135-2.047-2.135-1.184 0-2.046.902-2.046 2.135 0 1.23.862 2.131 2.046 2.131 1.186 0 2.047-.902 2.047-2.131Zm-2.585.11v1.394h-.444v-3.075h1.103c.646 0 .943.286.943.845 0 .344-.23.616-.524.656v.013c.256.041.35.273.403.698.04.275.094.752.19.864h-.525c-.122-.289-.11-.698-.204-1.04-.078-.261-.214-.356-.509-.356h-.43v.001h-.003Zm.55-.398c.431 0 .554-.233.554-.439 0-.243-.123-.435-.554-.435h-.55v.875h.55v-.001Zm-2.546.288c0-1.519 1.187-2.545 2.532-2.545 1.348 0 2.534 1.026 2.534 2.545 0 1.515-1.185 2.543-2.534 2.543-1.345 0-2.532-1.028-2.532-2.543ZM75.964 60.721l-2.92-3.323-2.893 3.323h-6.089l5.951-6.787-5.95-6.789h6.278l2.949 3.298 2.837-3.298h6.06l-5.922 6.761 6.003 6.815h-6.304Zm-23.593 0V39.335h11.691v4.767h-6.739v3.043h6.74v4.587h-6.74v4.21h6.74v4.78H52.37Z" fill="#FF5A00"/><path d="M47.437 39.335v8.752h-.055c-1.092-1.274-2.457-1.718-4.04-1.718-3.242 0-5.685 2.24-6.542 5.198-.978-3.26-3.5-5.259-7.24-5.259-3.037 0-5.435 1.384-6.687 3.639v-2.802h-6.277v-3.043h6.85v-4.766H11v21.385h5.596v-8.989h5.577a8.664 8.664 0 0 0-.256 2.115c0 4.459 3.357 7.592 7.642 7.592 3.603 0 5.978-1.718 7.234-4.847h-4.796c-.648.942-1.14 1.22-2.437 1.22-1.503 0-2.8-1.332-2.8-2.909h9.764c.424 3.542 3.142 6.597 6.874 6.597 1.61 0 3.083-.804 3.984-2.161h.054v1.385h4.933V39.336h-4.932v-.001ZM26.915 51.796c.312-1.359 1.35-2.247 2.645-2.247 1.426 0 2.411.861 2.67 2.247h-5.315Zm17.528 5.671c-1.818 0-2.948-1.72-2.948-3.516 0-1.92.983-3.764 2.948-3.764 2.038 0 2.85 1.845 2.85 3.764 0 1.82-.86 3.516-2.85 3.516Z" fill="#FFF"/></g></g></svg>