<svg width="100" height="100" xmlns="http://www.w3.org/2000/svg"><g fill="none" fill-rule="evenodd"><circle fill="#341B14" cx="50" cy="50" r="50"/><g fill-rule="nonzero"><path d="M50.24 74.92c.452-.227 12.193-5.33 15.919-8.392 3.838-3.175 5.87-7.71 5.87-13.154V27.859l-.338-.113c-9.37-5.103-20.999-4.763-21.563-4.763-.452 0-12.08-.34-21.45 4.763l-.226.113v25.628c0 5.444 2.032 9.98 5.87 13.155 3.726 3.062 15.467 8.165 15.919 8.278" fill="#341B14"/><path d="M50.24 75.487s-12.418-5.443-16.257-8.505C29.92 63.58 28 58.931 28 53.601V27.065c9.822-5.33 22.24-4.876 22.24-4.876s12.42-.454 22.241 4.876v26.422c0 5.33-1.92 9.98-5.983 13.382-3.839 3.175-16.257 8.618-16.257 8.618ZM29.807 53.601c0 4.99 1.807 9.072 5.306 11.907 3.162 2.608 12.532 6.804 15.129 7.938 2.596-1.134 12.08-5.443 15.128-7.938 3.5-2.835 5.306-7.031 5.306-11.907V27.519c-13.096-1.248-28.676-.567-40.869 10.773V53.6Z" fill="#FFB406"/><path d="M62.772 49.859c1.693 1.02 2.37 1.7 2.484 2.948 0 1.36-.903 2.155-2.371 2.155-1.242 0-2.71-.68-3.726-1.588v3.629c1.242.68 2.71 1.247 4.29 1.247 3.839 0 5.645-2.721 5.645-5.216.113-2.268-.564-4.083-3.838-6.01-1.468-.908-2.597-1.475-2.597-2.835 0-1.361 1.242-1.928 2.258-1.928 1.355 0 2.71.794 3.5 1.587v-3.402c-.678-.567-2.145-1.36-4.29-1.247-2.597.113-5.306 1.928-5.306 5.103.113 2.155.79 3.742 3.951 5.557ZM49.45 58.023c.339.114.903.227 1.807.227 4.403 0 6.886-3.969 6.886-9.639 0-5.783-2.596-9.299-7.225-9.299-2.145 0-3.839.454-5.306 1.361v25.629h3.838v-8.279Zm0-15.422c.339-.113.903-.34 1.355-.34 2.258 0 3.161 1.814 3.161 6.237 0 4.309-1.129 6.35-3.387 6.35-.564 0-1.016-.113-1.242-.227v-12.02h.113Zm-11.854 15.65c2.371 0 4.403-.568 5.87-1.588V39.539h-3.95v14.856c-.452.34-1.017.453-1.807.453-1.806 0-2.032-1.7-2.032-2.721V39.539h-3.951V51.9c0 4.197 2.032 6.351 5.87 6.351Zm26.305 15.308v2.608h.452v-1.02h.112l.678 1.02h.564s-.677-1.02-.79-1.134c.339-.113.564-.34.564-.68s-.225-.794-.903-.794h-.677Zm.677.34c.339 0 .452.227.452.34 0 .227-.113.454-.565.454h-.112V73.9h.225Z" fill="#FFB406"/><path d="M66.385 74.807c0 .907-.79 1.7-1.694 1.7-.903 0-1.693-.793-1.693-1.7 0-.908.79-1.701 1.693-1.701 1.016 0 1.694.793 1.694 1.7m-1.694-2.154a2.148 2.148 0 0 0-2.145 2.155c0 1.134.903 2.154 2.145 2.154a2.148 2.148 0 0 0 2.145-2.154c0-1.134-1.016-2.155-2.145-2.155" fill="#FFB406"/></g></g></svg>