<svg width="100" height="100" xmlns="http://www.w3.org/2000/svg"><g fill="none" fill-rule="evenodd"><circle fill="#00629F" cx="50" cy="50" r="50"/><g fill="#FFF" fill-rule="nonzero"><path d="M8.708 56.647c.592-.22 1.201-.456 1.793-.692a2621.92 2621.92 0 0 0 14.663-5.71c.321-.117.592-.354.744-.658.237-.507.508-.996.592-1.554.068-.439.085-.861-.321-1.182a1.298 1.298 0 0 0-.744-.237c-.474-.033-.93-.05-1.404-.033a.193.193 0 0 1-.203-.102.87.87 0 0 0-.44-.304 8.919 8.919 0 0 0-1.708-.49c-1.353-.27-2.689-.54-4.042-.81l-4.533-.946-3.196-.659c-.017 0-.05-.017-.05-.067.067-.017.135-.034.202-.017h18.773c.17 0 .203.017.17.202-.356 1.639-.711 3.26-1.05 4.882a618.882 618.882 0 0 0-1.15 5.421c-.202.963-.405 1.909-.608 2.872-.017.084-.05.118-.135.118H8.709v-.034Z"/><path d="M14.983 47.222c.169.524.338 1.048.507 1.554.254.76.49 1.52.727 2.28.034.102.051.136.186.085a28.479 28.479 0 0 1 5.683-2.027 7.084 7.084 0 0 1 2.063-.203c.153 0 .356 0 .372.186.017.186-.202.17-.32.186-2.74.524-5.295 1.537-7.78 2.753-3.079 1.503-6.14 3.023-9.201 4.543l-.22.102c.152-.693.288-1.385.44-2.06.355-1.64.693-3.277 1.048-4.933.22-1.08.457-2.162.694-3.26.017-.1.05-.134.169-.134 3.433 0 6.85 0 10.283.016.913-.016 1.843.068 2.74.254.22.034.44.118.642.22a.585.585 0 0 1 .186.168c.051.068.051.135.034.22-.034.084-.118.034-.169.034l-8.084.016ZM31.253 50.128c.067-.372.067-.372.44-.372h57.063c-.017.372-.017.372-.39.372H31.254ZM40.944 46.986c.101-.456.186-.861.27-1.267.17-.81.338-1.604.49-2.398.018-.101.068-.152.17-.135.237.017.473 0 .71 0 .118 0 .135.034.118.135a381.065 381.065 0 0 0-.896 4.256c-.034.17-.084.355-.118.54-.017.102-.051.153-.17.153a11.932 11.932 0 0 0-1.099 0c-.118.017-.22-.051-.236-.17-.373-1.148-.762-2.28-1.134-3.428-.017-.05-.033-.101-.067-.186l-.474 2.264c-.101.456-.203.912-.287 1.385-.017.1-.068.135-.17.135a4.522 4.522 0 0 0-.676 0c-.17.017-.17-.068-.135-.186.169-.777.321-1.537.49-2.314.17-.81.355-1.605.524-2.415.017-.119.051-.152.187-.152h1.166c.102 0 .153.033.17.135.389 1.199.76 2.398 1.167 3.648ZM55.438 48.253h-1.184c-.135 0-.17-.034-.152-.17.338-1.587.676-3.191 1.014-4.779.017-.101.068-.118.153-.118.879.017 1.758-.034 2.655.017.913.05 1.539.675 1.556 1.587.017 1.284-.44 2.331-1.556 3.04a3.19 3.19 0 0 1-1.658.423h-.828Zm.406-.811c.405.034.811-.034 1.2-.169.846-.338 1.455-1.452 1.32-2.348-.085-.523-.356-.827-.88-.912-.406-.067-.812 0-1.235-.033-.135 0-.169.05-.186.169-.186.912-.389 1.84-.575 2.77-.033.168-.152.388-.084.49.084.117.321.016.44.033ZM40.233 53.556a3.158 3.158 0 0 1-2.165 3.04 3.385 3.385 0 0 1-1.69.119c-.999-.203-1.675-.946-1.641-1.977.017-1.165.49-2.145 1.522-2.753a3.277 3.277 0 0 1 2.418-.354c.981.186 1.556.929 1.556 1.925Zm-1.167.085c0-.102-.017-.186-.017-.27a1.047 1.047 0 0 0-.845-.997 1.762 1.762 0 0 0-1.387.27c-.643.44-1.1 1.605-.93 2.365.101.456.321.794.778.895.676.186 1.387-.034 1.81-.591a2.624 2.624 0 0 0 .591-1.672ZM69.103 53.91c.27.018.524 0 .795-.033.457-.067.795-.439.846-.895.033-.304-.119-.524-.423-.54-.372-.017-.727 0-1.1-.017-.084 0-.101.05-.118.118-.27 1.317-.558 2.635-.829 3.935-.033.152-.084.203-.236.203a5.722 5.722 0 0 0-.761 0c-.17.017-.17-.05-.136-.186.22-1.03.44-2.044.66-3.074.118-.557.253-1.132.355-1.689.017-.084.034-.118.135-.118.846.017 1.708-.05 2.554.034.761.067 1.116.523 1.032 1.3-.102.828-.525 1.334-1.336 1.52-.136.034-.085.085-.068.152l.693 1.824c.085.22.085.22-.152.22h-.862c-.085 0-.136-.017-.153-.101a60.94 60.94 0 0 1-.896-2.652c-.423-1.3 0 .017 0 0ZM33.282 43.186h.017c.17.017.406-.085.49.034.085.118-.033.337-.067.506-.186.895-.39 1.79-.575 2.686a2.758 2.758 0 0 0-.034.371c.017.456.254.693.693.727.93.067 1.421-.338 1.624-1.318.203-.963.406-1.908.609-2.871.017-.101.05-.152.17-.135.27 0 .54.017.81 0 .136 0 .17.034.136.169-.169.777-.338 1.537-.507 2.314-.068.337-.136.692-.22 1.03-.237.895-.863 1.368-1.742 1.554a3.65 3.65 0 0 1-1.81-.034c-.76-.22-1.082-.76-.93-1.52.237-1.132.474-2.246.71-3.378.017-.101.051-.152.17-.135.169.017.32 0 .456 0ZM71.47 44.216l-1.285 2.348-.862 1.57a.184.184 0 0 1-.203.119h-.981a.915.915 0 0 1 .102-.186c.896-1.57 1.81-3.158 2.706-4.73.05-.117.152-.185.27-.168.338.017.677 0 1.015 0 .101 0 .135.034.152.135.135.878.27 1.723.406 2.584.101.693.22 1.402.338 2.111.034.254.051.254-.203.254h-2.807a.488.488 0 0 1-.22-.017c.135-.253.27-.49.406-.743.034-.068.101-.034.152-.034h1.302c.136 0 .153-.034.136-.152-.102-.693-.186-1.385-.288-2.078-.034-.32-.084-.641-.135-1.013ZM49.248 56.68c.152-.27.27-.506.406-.742.033-.085.101-.051.169-.051h1.268c.152 0 .186-.034.17-.186-.102-.692-.187-1.385-.288-2.077-.051-.304-.085-.625-.136-.98-.101.169-.186.321-.253.456-.626 1.132-1.252 2.28-1.878 3.412a.24.24 0 0 1-.253.152c-.305-.017-.61 0-.947 0 .101-.169.186-.321.27-.473.846-1.486 1.692-2.956 2.537-4.425.05-.118.152-.186.27-.169.339.017.677 0 .999 0 .118 0 .169.034.186.152l.355 2.33c.118.778.237 1.538.355 2.315 0 .033 0 .05.017.067.05.17 0 .22-.186.22-.947-.017-1.911 0-2.858 0h-.203ZM53.425 47.442l-.152.726c-.017.085-.068.102-.135.102h-3.45c-.119 0-.102-.034-.085-.135l.812-3.851c.067-.321.152-.642.203-.963.017-.101.067-.135.169-.135h3.382c.136 0 .152.05.119.152-.034.169-.085.338-.102.523 0 .119-.05.152-.169.152h-2.232c-.119 0-.17.017-.203.152-.051.321-.136.66-.203.98-.034.152 0 .186.152.186.626-.017 1.234 0 1.86 0 .119 0 .186 0 .136.152-.068.186-.034.439-.153.574-.118.135-.372.034-.575.034h-1.471c-.118 0-.17.034-.186.152a24.71 24.71 0 0 1-.237 1.08c-.034.119 0 .153.135.153.795-.034 1.573-.034 2.385-.034ZM81.382 47.442c-.051.253-.102.473-.153.693-.017.1-.05.118-.152.118h-3.433c-.135 0-.118-.068-.102-.152.203-.963.406-1.909.61-2.872l.405-1.874c.017-.135.068-.17.203-.17h3.315c.152 0 .203.035.152.187-.05.168-.084.32-.101.49-.017.118-.068.135-.17.135h-2.232c-.135 0-.186.033-.203.168-.067.321-.118.66-.203.98-.034.152-.017.186.136.186.625-.017 1.251 0 1.877 0 .135 0 .186.017.135.169a2.06 2.06 0 0 0-.101.439c-.017.135-.085.152-.203.152h-1.878c-.152 0-.202.05-.22.186-.067.354-.135.709-.22 1.047-.033.135.018.135.12.135h2.215l.203-.017ZM85.474 56.68h-1.69c-.136 0-.153-.033-.12-.168l1.016-4.746c.016-.118.067-.169.203-.169h3.348c.136 0 .17.034.136.169a2.69 2.69 0 0 0-.102.507c-.017.135-.068.152-.186.152h-2.232c-.119 0-.17.033-.203.152a21.69 21.69 0 0 1-.22 1.013c-.034.135.017.135.118.135h1.894c.153 0 .186.05.153.186-.051.186-.034.439-.153.54-.118.102-.389.034-.592.034h-1.42c-.136 0-.203.017-.237.186-.05.355-.135.71-.22 1.064-.034.118 0 .135.102.135H87.3c.135 0 .203.017.152.169-.05.152-.067.304-.084.456-.017.135-.068.186-.22.186h-1.675ZM64.452 56.68h-1.708c-.085 0-.135 0-.102-.117.339-1.588.677-3.193 1.015-4.78.017-.118.068-.17.186-.17h3.349c.135 0 .17.035.135.153-.05.135-.067.287-.084.422-.017.186-.085.253-.288.253-.71-.016-1.437 0-2.165 0-.118 0-.169.034-.186.152-.067.321-.135.66-.203.98-.033.135-.017.186.153.186.625-.017 1.251 0 1.877 0 .135 0 .186.017.135.169-.067.186-.034.456-.152.574-.118.118-.372.034-.575.034h-1.471c-.119 0-.17.034-.186.152-.068.355-.153.71-.22 1.064-.034.135 0 .169.135.169h2.199c.169 0 .186.05.152.186-.034.152-.085.32-.102.472-.017.102-.067.136-.169.136-.592-.034-1.167-.034-1.725-.034ZM32.25 51.614h1.083c.964 0 1.235.675 1.167 1.334a1.973 1.973 0 0 1-1.996 1.79 2.07 2.07 0 0 1-.558-.033c-.068-.017-.101-.017-.101-.102 0-.169-.017-.337-.034-.506-.017-.102 0-.152.135-.135.237.033.474.033.71-.017.457-.119.778-.558.761-1.03a.47.47 0 0 0-.44-.49h-.05c-.304-.017-.609 0-.913 0-.119 0-.119.067-.136.135-.27 1.25-.524 2.5-.794 3.766-.068.338-.068.338-.406.338h-.626c-.119 0-.17-.034-.135-.152.22-1.03.44-2.044.66-3.074.118-.557.236-1.132.354-1.689.017-.118.068-.152.186-.152.356.017.745.017 1.134.017ZM74.11 55.617l1.082-1.976 1.014-1.875a.228.228 0 0 1 .254-.152c.304.017.609 0 .913 0 .034.05-.017.101-.033.135l-2.74 4.814a.208.208 0 0 1-.186.118H73.33c-.101 0-.135-.034-.152-.135a204.8 204.8 0 0 1-.44-2.922c-.101-.625-.186-1.25-.287-1.892-.017-.118 0-.135.101-.135h.863c.084 0 .135.017.135.118l.254 1.976c.084.625.169 1.25.237 1.892l.067.034ZM61.949 48.253h-1.082c-.136 0-.186-.034-.153-.17.034-.168.085-.337.102-.506.017-.101.068-.135.169-.135h1.353c.17 0 .338-.017.507-.034.406-.084.542-.422.305-.76-.135-.186-.305-.338-.474-.49a8.583 8.583 0 0 1-.913-.844c-.558-.693-.355-1.537.474-1.909.186-.084.372-.135.575-.169.693-.1 1.403-.033 2.097-.05.084 0 .101.017.084.101-.05.203-.084.405-.135.608-.017.102-.085.102-.152.102h-1.15c-.186 0-.372.016-.558.084a.387.387 0 0 0-.288.473c.017.05.034.084.05.118.153.237.34.44.559.608.338.253.66.558.93.878a1.15 1.15 0 0 1-.355 1.757 2.55 2.55 0 0 1-.592.236 5.942 5.942 0 0 1-1.353.102ZM83.04 48.253h-.999c-.118 0-.152-.034-.118-.135.034-.17.084-.355.118-.54.017-.12.068-.153.186-.153h1.353c.17 0 .322-.017.49-.034.424-.067.559-.422.322-.777a2.691 2.691 0 0 0-.49-.49 6.595 6.595 0 0 1-.863-.81c-.592-.71-.389-1.57.457-1.926a2.68 2.68 0 0 1 .524-.152c.71-.1 1.438-.05 2.148-.067.084 0 .101.034.084.101-.05.186-.101.389-.135.591-.017.119-.068.119-.169.119h-1.133a2.13 2.13 0 0 0-.558.084.39.39 0 0 0-.305.473.6.6 0 0 0 .068.152c.135.22.304.422.524.574.288.237.558.473.812.727.71.743.49 1.689-.473 2.06a3.37 3.37 0 0 1-1.353.186c-.187.017-.339.017-.49.017ZM40.047 56.68c.051-.253.102-.489.152-.725.017-.102.102-.068.17-.068h1.454c.17 0 .321-.017.49-.068a.438.438 0 0 0 .339-.506.624.624 0 0 0-.085-.186 2.776 2.776 0 0 0-.49-.507 6.16 6.16 0 0 1-.964-.912c-.44-.574-.355-1.267.186-1.672.203-.152.423-.253.66-.304.304-.067.625-.118.93-.101h1.319c.169 0 .186.067.152.202-.034.17-.085.338-.102.49-.016.102-.067.135-.186.135h-1.217c-.17 0-.322.017-.49.085a.412.412 0 0 0-.305.473c.017.05.034.084.05.135.085.152.204.304.356.422.22.203.456.389.693.591.186.152.338.321.474.507a1.154 1.154 0 0 1-.203 1.621c-.034.034-.068.051-.102.068-.338.203-.71.32-1.116.338-.203.017-.389.017-.592.017-.507-.034-1.032-.034-1.573-.034ZM59.598 56.68h-1.065c-.119 0-.136-.033-.102-.134a5.07 5.07 0 0 0 .119-.54c.017-.119.067-.136.169-.136.592 0 1.167.034 1.759-.034.101 0 .186-.033.27-.067.22-.085.305-.338.22-.54 0-.018-.017-.034-.017-.051a1.689 1.689 0 0 0-.389-.456 9.771 9.771 0 0 1-.98-.896c-.339-.371-.525-.776-.339-1.3.135-.338.389-.591.727-.726.372-.152.778-.22 1.184-.22.474-.017.964 0 1.438 0 .118 0 .169.017.118.152-.05.169-.084.355-.118.54-.017.119-.068.153-.186.153h-1.218c-.152 0-.321.016-.457.084-.304.101-.389.338-.253.625.101.186.253.355.422.473.356.27.677.574.998.895.575.676.406 1.52-.406 1.909-.22.1-.473.168-.71.202a5.575 5.575 0 0 1-1.184.068ZM83.107 55.82c-.085.253-.153.506-.237.743-.017.033-.017.1-.085.1-.76.102-1.522.187-2.283-.067-.913-.304-1.387-1.03-1.302-1.993.152-1.722 1.268-2.854 2.977-3.074a5.5 5.5 0 0 1 1.488.051c.084.017.152.034.118.152-.034.186-.05.355-.067.54-.017.153-.051.203-.22.153a3.594 3.594 0 0 0-1.117-.119c-.879.034-1.657.642-1.944 1.622-.102.32-.119.658-.068.996.118.608.592.98 1.218.997.44.017.862-.034 1.285-.135.101.017.17.017.237.033ZM66.989 43.997h-1.556a46.2 46.2 0 0 1 .152-.693c.017-.101.068-.118.152-.118h3.992c.135 0 .152.05.118.152l-.05.202c-.034.152 0 .372-.119.44-.118.067-.304.017-.457.017h-.947c-.101 0-.152.016-.169.135l-.812 3.85c-.05.27-.05.27-.338.27h-.693c-.102 0-.136-.016-.119-.134.288-1.318.558-2.618.846-3.936a.34.34 0 0 1 0-.185ZM75.006 43.997h-1.421c-.135 0-.152-.051-.135-.153.033-.168.084-.337.118-.506.017-.102.05-.152.17-.152h3.974c.135 0 .152.05.118.152l-.017.067c-.05.186-.017.473-.152.558-.135.084-.39.05-.592.05h-.795c-.101 0-.152.017-.186.136-.27 1.317-.558 2.617-.829 3.918-.034.152-.084.203-.253.186-.254-.017-.525 0-.778 0-.119 0-.153-.017-.119-.152.27-1.284.541-2.584.829-3.868l.068-.236ZM47.083 51.614h1.945c.135 0 .203 0 .152.169a2.69 2.69 0 0 0-.101.506c-.017.102-.051.136-.17.136h-1.268c-.152 0-.186.05-.203.168-.27 1.318-.558 2.635-.829 3.936-.017.118-.067.135-.169.135h-.829c-.118 0-.152-.034-.118-.152.288-1.317.558-2.635.846-3.935.034-.152-.017-.17-.136-.17h-1.268c-.102 0-.135-.016-.102-.134.051-.186.102-.372.119-.558.017-.118.068-.135.169-.135.626.034 1.302.034 1.962.034ZM47.776 43.186h1.928c.186 0 .237.034.17.22-.051.151-.085.303-.102.472-.017.119-.068.119-.152.119h-1.286c-.118 0-.169.033-.186.152-.27 1.266-.54 2.516-.811 3.783-.068.32-.068.32-.39.32h-.642c-.135 0-.17-.033-.135-.168.152-.726.32-1.453.473-2.196.119-.591.237-1.182.372-1.773.034-.135-.017-.135-.118-.135H45.61c-.101 0-.152-.017-.101-.136.05-.168.085-.337.118-.523.017-.135.068-.152.186-.152.66.017 1.32.017 1.962.017ZM54.406 55.887h2.3l-.152.71c-.017.084-.068.1-.135.1h-3.197c-.118 0-.118-.033-.101-.134.338-1.588.676-3.193 1.014-4.78.017-.102.068-.152.186-.152.271.017.559 0 .83 0 .1 0 .151 0 .118.135-.288 1.3-.559 2.584-.83 3.885 0 .067-.016.135-.033.236ZM43.294 48.253h-.422c-.102 0-.153 0-.119-.135.22-.997.423-1.993.626-2.99.118-.574.254-1.148.355-1.74.034-.168.085-.22.27-.22.254.018.525 0 .779 0 .084 0 .135 0 .101.12-.338 1.604-.676 3.191-1.015 4.796-.016.118-.067.169-.202.169h-.373ZM77.56 56.68h-.423c-.153 0-.153-.033-.136-.151.237-1.132.49-2.263.727-3.412.102-.456.203-.912.288-1.368.017-.118.05-.152.186-.152.27.017.541.017.812 0 .135 0 .169.034.135.169l-.609 2.888-.406 1.875c-.017.118-.067.152-.169.135-.118.017-.27.017-.406.017Z"/><path d="M24.64 47.932c-.575.034-1.167.101-1.776.169-.423.05-.863.084-1.285.067-.102 0-.203-.017-.22-.135-.017-.118.118-.152.22-.169.372-.033.744-.084 1.116-.152a.923.923 0 0 0 .592-.338c.05-.084.152-.118.254-.1.507 0 1.014-.018 1.539.033.067 0 .118.017.186.034.44.101.608.338.49.76a4.379 4.379 0 0 1-.558 1.216c-.017.034-.05.067-.068.084-.034.034-.084.068-.135.034-.05-.034-.05-.084-.034-.135.068-.22.135-.422.22-.642.05-.135.085-.287.102-.439.016-.118-.068-.22-.187-.236h-.016a2.069 2.069 0 0 0-.44-.051ZM89.364 55.465a1.32 1.32 0 0 1 2.639 0 1.32 1.32 0 0 1-2.639 0Zm2.368 0c0-.574-.473-1.047-1.048-1.047-.575 0-1.049.473-1.049 1.047s.474 1.047 1.049 1.047 1.048-.473 1.048-1.047Z"/><path d="M90.109 54.738h.575c.084 0 .152.017.236.034.051.017.119.034.153.085.05.034.067.084.084.152a.639.639 0 0 1 0 .253.268.268 0 0 1-.135.169l-.102.05c.051.018.102.051.136.085l.101.152c.068.135.135.27.203.389h-.389c-.05-.119-.118-.237-.17-.338-.016-.034-.033-.068-.067-.102-.034-.033-.084-.067-.135-.067h-.135v.523h-.355v-1.385Zm.355.609h.169c.034 0 .05 0 .084-.017a.152.152 0 0 0 .102-.102c.017-.05.017-.101 0-.135a.173.173 0 0 0-.085-.101c-.034-.017-.067-.017-.101-.017h-.152c-.017.135-.017.253-.017.372Z"/></g></g></svg>